<svg width="178" height="44" viewBox="0 0 178 44" fill="none" xmlns="http://www.w3.org/2000/svg">
<path d="M17.5579 5.5H5.5V38.5H17.5579V5.5Z" fill="white"/>
<path d="M29.617 5.5H17.5591L29.617 22L17.5591 38.5H29.617L41.6749 22L29.617 5.5Z" fill="white"/>
<path d="M53.7297 5.5H41.6729L53.7297 22L41.6729 38.5H53.7297L65.7877 22L53.7297 5.5Z" fill="white"/>
<path d="M77.5278 11.7294H84.2724C89.849 11.7294 92.4953 15.5165 92.4953 21.067C92.4953 26.6175 89.6683 30.2749 84.0906 30.2749H77.5278V11.7284V11.7294ZM84.0123 28.2263C88.3697 28.2263 90.1081 25.4244 90.1081 21.067C90.1081 16.7095 88.5515 13.752 84.1941 13.752H79.8627V28.2263H84.0133H84.0123Z" fill="white"/>
<path d="M102.719 28.408H102.693C101.889 29.4454 100.514 30.535 98.2311 30.535C95.6894 30.535 93.6919 29.342 93.6919 26.8002C93.6919 23.6358 96.1825 22.987 99.5286 22.4689C101.423 22.1837 102.745 22.0019 102.745 20.5498C102.745 19.0976 101.656 18.1887 99.7365 18.1887C97.5573 18.1887 96.4677 19.1227 96.3904 21.1463H94.3668C94.4441 18.5523 96.1563 16.6071 99.7104 16.6071C102.563 16.6071 104.664 17.6706 104.664 20.8611V27.2421C104.664 28.3317 104.923 28.9283 106.091 28.6692H106.17V30.1997C105.911 30.3031 105.573 30.4075 105.029 30.4075C103.654 30.4075 102.928 29.7849 102.72 28.4101L102.719 28.408ZM102.771 25.3209V23.0382C102.071 23.4791 100.852 23.8165 99.7104 24.0234C97.6095 24.412 95.9234 24.7756 95.9234 26.7469C95.9234 28.5365 97.3243 28.9262 98.6991 28.9262C101.501 28.9262 102.771 26.8775 102.771 25.3209Z" fill="white"/>
<path d="M105.943 16.8653H107.888V12.6374H109.989V16.8653H112.583V18.5776H109.989V27.2935C109.989 28.2275 110.482 28.5388 111.338 28.5388C111.752 28.5388 112.219 28.4354 112.453 28.357H112.531V30.1727C112.038 30.2761 111.467 30.3545 110.845 30.3545C109.132 30.3545 107.888 29.6545 107.888 27.7605V18.5786H105.943V16.8663V16.8653Z" fill="white"/>
<path d="M122.442 28.408H122.416C121.612 29.4454 120.237 30.535 117.954 30.535C115.413 30.535 113.415 29.342 113.415 26.8002C113.415 23.6358 115.906 22.987 119.252 22.4689C121.145 22.1837 122.468 22.0019 122.468 20.5498C122.468 19.0976 121.379 18.1887 119.46 18.1887C117.28 18.1887 116.191 19.1227 116.114 21.1463H114.09C114.168 18.5523 115.879 16.6071 119.434 16.6071C122.287 16.6071 124.388 17.6706 124.388 20.8611V27.2421C124.388 28.3317 124.647 28.9283 125.815 28.6692H125.892V30.1997C125.633 30.3031 125.295 30.4075 124.751 30.4075C123.376 30.4075 122.65 29.7849 122.442 28.4101V28.408ZM122.493 25.3209V23.0382C121.792 23.4791 120.573 23.8165 119.433 24.0234C117.332 24.412 115.645 24.7756 115.645 26.7469C115.645 28.5365 117.046 28.9262 118.421 28.9262C121.223 28.9262 122.493 26.8775 122.493 25.3209Z" fill="white"/>
<path d="M126.205 25.9176H128.358C128.643 28.2515 130.2 28.9002 132.198 28.9002C134.402 28.9002 135.31 27.9401 135.31 26.6949C135.31 25.1905 134.272 24.8019 131.808 24.2826C129.162 23.7383 126.802 23.193 126.802 20.2616C126.802 18.0311 128.514 16.578 131.626 16.578C134.946 16.578 136.581 18.1607 136.891 20.7798H134.738C134.53 19.0163 133.571 18.238 131.574 18.238C129.576 18.238 128.876 19.0936 128.876 20.1571C128.876 21.6092 130.173 21.8955 132.482 22.3614C135.179 22.9057 137.436 23.5022 137.436 26.5893C137.436 29.2868 135.23 30.6616 132.144 30.6616C128.461 30.6616 126.412 28.9242 126.204 25.9145L126.205 25.9176Z" fill="white"/>
<path d="M147.368 28.408H147.342C146.538 29.4454 145.163 30.535 142.88 30.535C140.338 30.535 138.341 29.342 138.341 26.8002C138.341 23.6358 140.831 22.987 144.178 22.4689C146.072 22.1837 147.394 22.0019 147.394 20.5498C147.394 19.0976 146.305 18.1887 144.385 18.1887C142.206 18.1887 141.117 19.1227 141.039 21.1463H139.016C139.093 18.5523 140.805 16.6071 144.359 16.6071C147.212 16.6071 149.313 17.6706 149.313 20.8611V27.2421C149.313 28.3317 149.572 28.9283 150.74 28.6692H150.819V30.1997C150.56 30.3031 150.222 30.4075 149.678 30.4075C148.303 30.4075 147.577 29.7849 147.369 28.4101L147.368 28.408ZM147.42 25.3209V23.0382C146.72 23.4791 145.501 23.8165 144.359 24.0234C142.258 24.412 140.572 24.7756 140.572 26.7469C140.572 28.5365 141.973 28.9262 143.348 28.9262C146.15 28.9262 147.42 26.8775 147.42 25.3209Z" fill="white"/>
<path d="M160.379 30.275V28.4331H160.326C159.367 29.7296 158.225 30.5863 156.28 30.5863C153.531 30.5863 151.767 28.9262 151.767 26.1505V16.8641H153.868V26.0982C153.868 27.8356 154.984 28.8479 156.877 28.8479C159.004 28.8479 160.379 27.2391 160.379 25.1131V16.8641H162.479V30.275H160.379Z" fill="white"/>
<path d="M166.973 19.0957H167.025C167.829 17.7982 169.23 16.7096 171.02 16.7096C171.408 16.7096 171.616 16.7618 171.875 16.8652V18.8888H171.797C171.486 18.7854 171.279 18.7593 170.863 18.7593C168.788 18.7593 166.971 20.3159 166.971 22.8315V30.2761H164.871V16.8652H166.971V19.0957H166.973Z" fill="white"/>
</svg>
